<?xml version="1.0" standalone="no"?>
<!DOCTYPE svg PUBLIC "-//W3C//DTD SVG 20010904//EN"
 "http://www.w3.org/TR/2001/REC-SVG-20010904/DTD/svg10.dtd">
<svg version="1.0" xmlns="http://www.w3.org/2000/svg"
 width="48.000000pt" height="48.000000pt" viewBox="0 0 48.000000 48.000000"
 preserveAspectRatio="xMidYMid meet">

<g transform="translate(0.000000,48.000000) scale(0.100000,-0.100000)"
fill="#000000" stroke="none">
<path d="M156 374 c-75 -27 -134 -89 -151 -156 -10 -41 18 -36 33 5 25 70 119
136 192 137 87 0 185 -63 212 -136 15 -42 44 -48 33 -6 -31 126 -189 204 -319
156z"/>
<path d="M186 289 c-38 -30 -49 -64 -36 -105 14 -43 44 -64 90 -64 46 0 76 21
90 64 13 41 2 75 -36 105 -34 27 -74 27 -108 0z"/>
</g>
</svg>
