<?xml version="1.0" standalone="no"?>
<!DOCTYPE svg PUBLIC "-//W3C//DTD SVG 20010904//EN"
 "http://www.w3.org/TR/2001/REC-SVG-20010904/DTD/svg10.dtd">
<svg version="1.0" xmlns="http://www.w3.org/2000/svg"
 width="48.000000pt" height="48.000000pt" viewBox="0 0 48.000000 48.000000"
 preserveAspectRatio="xMidYMid meet">

<g transform="translate(0.000000,48.000000) scale(0.100000,-0.100000)"
fill="#000000" stroke="none">
<path d="M227 252 c-103 -103 -187 -193 -187 -200 0 -24 27 -11 74 37 48 49
50 50 77 35 35 -18 63 -18 98 0 47 25 63 83 36 135 -13 26 -13 30 9 50 l22 21
37 -37 c20 -20 42 -51 49 -70 11 -31 38 -46 38 -21 0 25 -43 99 -72 123 l-31
26 32 33 c32 33 40 56 18 56 -7 0 -97 -84 -200 -188z m83 -46 c0 -27 -38 -66
-65 -66 -12 0 -29 6 -40 13 -15 11 -15 16 -4 22 7 5 25 9 39 9 20 1 25 6 26
26 0 14 4 32 9 39 6 11 11 11 22 -4 7 -11 13 -28 13 -39z"/>
<path d="M156 374 c-75 -27 -134 -89 -151 -156 -10 -41 18 -36 33 5 14 39 63
92 106 114 17 9 57 18 88 19 65 3 88 12 67 25 -21 13 -99 9 -143 -7z"/>
<path d="M189 295 c-24 -13 -58 -70 -47 -80 2 -3 26 18 53 45 48 49 46 63 -6
35z"/>
</g>
</svg>
